<svg width="50" height="50" viewBox="0 0 50 50" fill="none" xmlns="http://www.w3.org/2000/svg">
<path d="M25.0087 12.161C17.9191 12.161 12.1796 17.9067 12.1796 24.99C12.1796 32.0794 17.9254 37.8189 25.0087 37.8189C32.0983 37.8189 37.8379 32.0732 37.8379 24.99C37.8379 17.9005 32.0921 12.161 25.0087 12.161ZM25.0087 33.3169C20.4066 33.3169 16.6816 29.5899 16.6816 24.99C16.6816 20.39 20.4087 16.663 25.0087 16.663C29.6087 16.663 33.3358 20.39 33.3358 24.99C33.3379 29.5899 29.6108 33.3169 25.0087 33.3169Z" fill="white"/>
<path d="M35.3088 0.157053C30.7088 -0.0575268 19.3151 -0.0471103 14.7109 0.157053C10.6651 0.346633 7.09631 1.3237 4.21922 4.20073C-0.58911 9.00898 0.0254735 15.488 0.0254735 24.99C0.0254735 34.7148 -0.516193 41.0438 4.21922 45.7792C9.04631 50.6041 15.6192 49.9729 25.0088 49.9729C34.6421 49.9729 37.9671 49.9791 41.3734 48.6604C46.0046 46.8625 49.5005 42.723 49.8421 35.2877C50.0588 30.6857 50.0463 19.2942 49.8421 14.6901C49.4296 5.9132 44.7192 0.590379 35.3088 0.157053ZM42.5901 42.598C39.438 45.75 35.0651 45.4688 24.9484 45.4688C14.5317 45.4688 10.3546 45.6229 7.30672 42.5667C3.79631 39.073 4.43172 33.4627 4.43172 24.9566C4.43172 13.4464 3.25047 5.15697 14.8026 4.56531C17.4567 4.47156 18.238 4.44031 24.9192 4.44031L25.013 4.50281C36.1151 4.50281 44.8255 3.34033 45.3484 14.8901C45.4671 17.5255 45.4942 18.3172 45.4942 24.9879C45.4921 35.2835 45.688 39.4855 42.5901 42.598Z" fill="white"/>
<path d="M38.3463 12.6526C40.002 12.6526 41.3442 11.3104 41.3442 9.65475C41.3442 7.99908 40.002 6.65689 38.3463 6.65689C36.6906 6.65689 35.3484 7.99908 35.3484 9.65475C35.3484 11.3104 36.6906 12.6526 38.3463 12.6526Z" fill="white"/>
</svg>
