<svg width="50" height="50" viewBox="0 0 50 50" fill="none" xmlns="http://www.w3.org/2000/svg">
<path d="M49.9874 50V49.9979H49.9999V31.6604C49.9999 22.6896 48.0686 15.7791 37.5811 15.7791C32.5395 15.7791 29.1561 18.5458 27.7749 21.1687H27.6291V16.6166H17.6853V49.9979H28.0395V33.4687C28.0395 29.1167 28.8645 24.9083 34.2541 24.9083C39.5645 24.9083 39.6436 29.875 39.6436 33.7479V50H49.9874Z" fill="white"/>
<path d="M0.824951 16.6187H11.1916V49.9999H0.824951V16.6187Z" fill="white"/>
<path d="M6.00417 0C2.68958 0 0 2.68958 0 6.00417C0 9.31875 2.68958 12.0646 6.00417 12.0646C9.31875 12.0646 12.0083 9.31875 12.0083 6.00417C12.0062 2.68958 9.31667 0 6.00417 0V0Z" fill="white"/>
</svg>
