<svg width="128" height="128" viewBox="0 0 128 128" fill="none" xmlns="http://www.w3.org/2000/svg">
<g clip-path="url(#clip0_43_124)">
<path d="M117.688 98.2421C110.715 98.0511 105.391 98.7031 100.836 100.621C99.543 101.168 97.481 101.18 97.27 102.801C97.981 103.547 98.09 104.66 98.657 105.578C99.743 107.332 101.579 109.691 103.216 110.93C105.005 112.278 106.849 113.723 108.767 114.891C112.181 116.973 115.99 118.161 119.271 120.243C121.209 121.473 123.13 123.02 125.021 124.407C125.955 125.091 126.584 126.157 127.794 126.587V126.392C127.157 125.58 126.993 124.462 126.407 123.615L123.829 121.037C121.309 117.693 118.11 114.756 114.712 112.318C112.001 110.369 105.931 107.74 104.802 104.588L104.603 104.389C106.525 104.17 108.775 103.475 110.552 102.998C113.532 102.201 116.197 102.408 119.271 101.611L123.435 100.424V99.6311C121.88 98.0371 120.771 95.9241 119.076 94.4791C114.635 90.6981 109.791 86.9241 104.803 83.7761C102.037 82.0301 98.619 80.8931 95.686 79.4131C94.698 78.9171 92.967 78.6551 92.315 77.8271C90.776 75.8661 89.936 73.3781 88.749 71.0891C86.261 66.2961 83.819 61.0661 81.612 56.0231C80.108 52.5861 79.128 49.1951 77.253 46.1131C68.253 31.3161 58.566 22.3831 43.558 13.6051C40.363 11.7381 36.519 11.0001 32.456 10.0351L25.913 9.64009C24.581 9.08509 23.198 7.45609 21.948 6.66309C16.977 3.52009 4.223 -3.31191 0.538997 5.67209C-1.785 11.3401 4.016 16.8711 6.09 19.7461C7.547 21.7581 9.41 24.0191 10.449 26.2851C11.137 27.7771 11.254 29.2691 11.84 30.8441C13.278 34.7271 14.535 38.9531 16.399 42.5391C17.34 44.3551 18.379 46.2661 19.571 47.8911C20.298 48.8871 21.551 49.3291 21.751 50.8641C20.524 52.5791 20.454 55.2391 19.767 57.4071C16.669 67.1771 17.841 79.3171 22.345 86.5441C23.728 88.7671 26.986 93.5241 31.462 91.7001C35.38 90.1021 34.505 85.1611 35.626 80.7981C35.88 79.8101 35.724 79.0831 36.22 78.4191V78.6181L39.79 85.7511C42.431 90.0051 47.114 94.4501 51.087 97.4501C53.146 99.0051 54.767 101.692 57.431 102.602V102.403H57.232C56.716 101.598 55.908 101.266 55.252 100.622C53.701 99.0991 51.975 97.2081 50.693 95.4661C47.08 90.5641 43.888 85.1961 40.982 79.6111C39.591 76.9431 38.384 74.0021 37.212 71.2871C36.759 70.2401 36.767 68.6541 35.825 68.1151C34.544 70.1031 32.653 71.7131 31.661 74.0601C30.079 77.8141 29.872 82.3961 29.286 87.1421C28.938 87.2671 29.091 87.1811 28.888 87.3411C26.126 86.6731 25.158 83.8331 24.13 81.3921C21.536 75.2281 21.052 65.3021 23.337 58.2011C23.927 56.3651 26.599 50.5841 25.517 48.8851C25.001 47.1941 23.298 46.2131 22.345 44.9201C21.165 43.3221 19.99 41.2171 19.173 39.3691C17.048 34.5641 16.06 29.1661 13.821 24.3071C12.751 21.9831 10.946 19.6311 9.462 17.5691C7.817 15.2801 5.978 13.5921 4.704 10.8271C4.251 9.84308 3.638 8.26809 4.306 7.26109C4.521 6.57709 4.822 6.29209 5.497 6.07009C6.645 5.18309 9.849 6.36709 11.044 6.86309C14.224 8.18309 16.876 9.44108 19.571 11.2261C20.86 12.0811 22.169 13.7381 23.731 14.1991H25.516C28.305 14.8401 31.43 14.3941 34.039 15.1871C38.648 16.5891 42.777 18.7691 46.527 21.1361C57.949 28.3511 67.293 38.6161 73.683 50.8701C74.71 52.8431 75.156 54.7221 76.062 56.8151C77.886 61.0341 80.187 65.3741 82.003 69.5031C83.819 73.6161 85.585 77.7731 88.151 81.1981C89.499 82.9991 94.702 83.9641 97.069 84.9641C98.729 85.6631 101.448 86.3941 103.018 87.3431C106.018 89.1521 108.924 91.3081 111.741 93.2881C113.143 94.2801 117.471 96.4561 117.686 98.2451L117.688 98.2421ZM29.083 22.7221C27.63 22.6951 26.603 22.8781 25.517 23.1171V23.3161H25.712C26.407 24.7381 27.63 25.6561 28.489 26.8821L30.469 31.0461L30.668 30.8511C31.895 29.9841 32.457 28.6011 32.449 26.4881C31.957 25.9681 31.887 25.3241 31.457 24.7031C30.895 23.8791 29.797 23.4141 29.082 22.7231L29.083 22.7221Z" fill="white"/>
</g>
<defs>
<clipPath id="clip0_43_124">
<rect width="128" height="128" fill="white"/>
</clipPath>
</defs>
</svg>
