<svg width="128" height="128" viewBox="0 0 128 128" fill="none" xmlns="http://www.w3.org/2000/svg">
<g clip-path="url(#clip0_29_93)">
<path d="M114.313 55.2539C114.261 55.2539 114.211 55.2692 114.168 55.2979L111.822 56.6679C111.778 56.6952 111.742 56.7336 111.717 56.7792C111.692 56.8247 111.679 56.876 111.68 56.9279V59.6679C111.68 59.7839 111.735 59.8719 111.822 59.9299L114.168 61.2979C114.211 61.3265 114.261 61.3417 114.313 61.3417C114.365 61.3417 114.415 61.3265 114.458 61.2979L116.8 59.9299C116.845 59.9021 116.881 59.8633 116.907 59.8173C116.932 59.7712 116.945 59.7195 116.945 59.6669V56.9299C116.945 56.8778 116.932 56.8264 116.907 56.7809C116.881 56.7353 116.844 56.6971 116.8 56.6699L114.457 55.2989C114.414 55.2704 114.364 55.254 114.313 55.2539ZM63.22 71.6379C62.793 71.6379 62.368 71.7419 62.006 71.9459L50.457 78.6729C50.0867 78.89 49.7798 79.2004 49.5668 79.5731C49.3538 79.9457 49.2422 80.3677 49.243 80.7969V94.2199C49.243 95.0939 49.705 95.9099 50.457 96.3479L53.497 98.0939C54.973 98.8219 55.494 98.8199 56.159 98.8199C58.329 98.8199 59.574 97.4809 59.574 95.1799V81.9349C59.5727 81.8427 59.5357 81.7546 59.4708 81.6892C59.4059 81.6237 59.3182 81.586 59.226 81.5839H57.752C57.6595 81.5855 57.5712 81.623 57.5059 81.6885C57.4405 81.754 57.4033 81.8424 57.402 81.9349V95.1829C57.402 96.2019 56.333 97.2229 54.626 96.3499L51.471 94.5149C51.355 94.4569 51.296 94.3089 51.296 94.1929V80.7669C51.296 80.6509 51.355 80.5069 51.471 80.4479L63.016 73.7509C63.103 73.6929 63.249 73.6929 63.365 73.7509L74.913 80.4479C75.028 80.5069 75.085 80.6219 75.085 80.7679V94.1919C75.085 94.3369 75.028 94.4559 74.913 94.5139L63.365 101.241C63.278 101.299 63.132 101.299 63.016 101.241L60.065 99.4619C59.978 99.4039 59.862 99.3749 59.775 99.4329C58.965 99.8989 58.823 99.9599 58.041 100.222C57.867 100.28 57.578 100.395 58.156 100.715L62.006 103.017C62.382 103.22 62.786 103.336 63.22 103.336C63.654 103.336 64.087 103.221 64.434 103.076L75.983 96.3489C76.3534 96.131 76.6604 95.8199 76.8733 95.4466C77.0863 95.0732 77.1979 94.6507 77.197 94.2209V80.7969C77.197 79.9229 76.735 79.1099 75.983 78.6729L64.434 71.9459C64.0622 71.7414 63.6443 71.6354 63.22 71.6379ZM81.25 77.7679C80.6573 77.7703 80.0898 78.0079 79.6722 78.4285C79.2546 78.8491 79.0211 79.4182 79.023 80.0109C79.0214 80.6034 79.255 81.1723 79.6726 81.5927C80.0901 82.0131 80.6575 82.2505 81.25 82.2529C82.467 82.2529 83.478 81.2339 83.478 80.0109C83.4749 79.4197 83.2396 78.8533 82.8228 78.4339C82.4061 78.0146 81.8412 77.7747 81.25 77.7679ZM81.22 78.1469C81.4665 78.1439 81.7112 78.1898 81.9398 78.2822C82.1684 78.3746 82.3763 78.5114 82.5515 78.6849C82.7267 78.8583 82.8657 79.0649 82.9604 79.2925C83.0551 79.5202 83.1035 79.7644 83.103 80.0109C83.103 81.0309 82.263 81.9049 81.221 81.9049C80.209 81.9049 79.369 81.0589 79.369 80.0109C79.369 78.9629 80.237 78.1469 81.22 78.1469ZM80.411 78.7579V81.3199H80.905V80.3039H81.339C81.513 80.3039 81.57 80.3619 81.599 80.5069C81.599 80.5369 81.685 81.1769 81.685 81.2929H82.205C82.147 81.1769 82.118 80.8269 82.089 80.6229C82.061 80.3029 82.033 80.0699 81.685 80.0409C81.859 79.9819 82.148 79.8949 82.148 79.4289C82.148 78.7589 81.568 78.7589 81.28 78.7589L80.411 78.7579ZM80.846 79.1659H81.25C81.396 79.1659 81.626 79.1659 81.626 79.5149C81.626 79.6309 81.57 79.8659 81.25 79.8659H80.845L80.846 79.1659ZM66.376 81.1759C63.076 81.1759 61.108 82.5739 61.108 84.9329C61.108 87.4669 63.076 88.1629 66.231 88.4839C70.021 88.8629 70.311 89.4169 70.311 90.1739C70.311 91.4839 69.267 92.0379 66.836 92.0379C63.768 92.0379 63.103 91.2799 62.871 89.7369C62.871 89.5619 62.729 89.4469 62.555 89.4469H61.05C60.958 89.448 60.8702 89.4852 60.8054 89.5505C60.7407 89.6158 60.7042 89.7039 60.704 89.7959C60.704 91.7759 61.745 94.1059 66.811 94.1059C70.456 94.1059 72.569 92.6479 72.569 90.0859C72.569 87.5809 70.889 86.9119 67.331 86.4459C63.741 85.9799 63.366 85.7179 63.366 84.8739C63.366 84.1749 63.684 83.2439 66.346 83.2439C68.719 83.2439 69.615 83.7689 69.963 85.3699C69.9804 85.4422 70.0211 85.5067 70.0787 85.5536C70.1363 85.6006 70.2077 85.6274 70.282 85.6299H71.815C71.903 85.6299 71.99 85.5729 72.049 85.5149C72.1027 85.4376 72.1323 85.346 72.134 85.2519C71.903 82.4569 70.081 81.1759 66.376 81.1759Z" fill="white"/>
<path d="M86.072 24.6641C85.949 24.6628 85.8277 24.6934 85.72 24.7531C85.608 24.8183 85.5147 24.9113 85.449 25.023C85.3833 25.1347 85.3475 25.2615 85.345 25.3911V44.3201C85.345 44.4941 85.255 44.6701 85.082 44.7861C85.0021 44.8291 84.9128 44.8516 84.822 44.8516C84.7313 44.8516 84.6419 44.8291 84.562 44.7861L81.496 43.0111C81.2711 42.8822 81.0163 42.8143 80.757 42.8143C80.4977 42.8143 80.243 42.8822 80.018 43.0111L67.75 50.1461C67.523 50.2741 67.3338 50.4598 67.2016 50.6844C67.0694 50.909 66.9988 51.1645 66.997 51.4251V65.6651C66.997 66.1891 67.287 66.6851 67.75 66.9471L80.02 74.0821C80.2448 74.2109 80.4994 74.2786 80.7585 74.2786C81.0176 74.2786 81.2722 74.2109 81.497 74.0821L93.766 66.9471C94.229 66.6851 94.519 66.1891 94.519 65.6651V30.1681C94.519 29.6151 94.229 29.1181 93.766 28.8571L86.446 24.7531C86.3303 24.6949 86.2016 24.6645 86.072 24.6641ZM13.687 42.4301C13.456 42.4301 13.225 42.5141 13.023 42.6301L0.753012 49.7391C0.522617 49.8706 0.33141 50.0611 0.199063 50.2909C0.0667167 50.5208 -0.00199014 50.7818 1.20216e-05 51.0471L0.030012 70.1491C0.030012 70.4121 0.173012 70.6741 0.405012 70.7911C0.512376 70.8621 0.638271 70.9 0.767012 70.9C0.895753 70.9 1.02165 70.8621 1.12901 70.7911L8.42301 66.5981C8.88601 66.3361 9.17301 65.8401 9.17301 65.3161V56.3761C9.17301 55.8521 9.46301 55.3561 9.92701 55.0941L13.023 53.2891C13.254 53.1431 13.516 53.0851 13.776 53.0851C14.036 53.0851 14.297 53.1431 14.5 53.2891L17.596 55.0941C18.059 55.3561 18.349 55.8521 18.349 56.3761V65.3161C18.349 65.8401 18.637 66.3361 19.099 66.5981L26.335 70.7911C26.4476 70.8624 26.5782 70.9002 26.7115 70.9002C26.8448 70.9002 26.9754 70.8624 27.088 70.7911C27.2029 70.7281 27.2986 70.6352 27.3648 70.5221C27.431 70.409 27.4653 70.2801 27.464 70.1491V51.0471C27.464 50.5231 27.174 50.0271 26.71 49.7641L14.47 42.6301C14.2642 42.5198 14.0385 42.4515 13.806 42.4291L13.687 42.4301ZM114.354 42.6401C114.101 42.6401 113.85 42.7061 113.618 42.8381L101.346 49.9691C100.883 50.2311 100.596 50.7271 100.596 51.2521V65.4921C100.596 66.0161 100.883 66.5121 101.346 66.7741L113.53 73.7611C113.749 73.8898 113.999 73.9576 114.254 73.9576C114.508 73.9576 114.758 73.8898 114.977 73.7611L122.357 69.6281C122.472 69.565 122.567 69.472 122.633 69.3589C122.699 69.2459 122.733 69.117 122.732 68.9861C122.733 68.8555 122.699 68.7271 122.633 68.6144C122.567 68.5018 122.471 68.409 122.357 68.3461L110.03 61.2101C109.918 61.1443 109.825 61.0508 109.759 60.9385C109.693 60.8263 109.657 60.6991 109.655 60.5691V56.1131C109.654 55.9824 109.688 55.8538 109.754 55.7411C109.82 55.6284 109.915 55.5357 110.03 55.4731L113.88 53.2591C113.993 53.1879 114.123 53.1502 114.257 53.1502C114.39 53.1502 114.52 53.1879 114.633 53.2591L118.479 55.4721C118.592 55.5377 118.685 55.6311 118.752 55.7433C118.818 55.8555 118.854 55.9829 118.857 56.1131V59.6081C118.857 59.8711 119.001 60.1331 119.232 60.2491C119.345 60.3206 119.476 60.3586 119.609 60.3586C119.743 60.3586 119.873 60.3206 119.986 60.2491L127.277 55.9691C127.501 55.8386 127.685 55.6511 127.813 55.4256C127.94 55.2002 128.005 54.9449 128.001 54.6861V51.2211C128.001 50.6971 127.711 50.2041 127.277 49.9411L115.093 42.8371C114.868 42.7085 114.614 42.6402 114.355 42.6391L114.354 42.6401ZM80.757 53.2741C80.822 53.2741 80.888 53.2891 80.947 53.3191L85.141 55.7651C85.257 55.8231 85.316 55.9671 85.316 56.0841V60.9761C85.316 61.1221 85.257 61.2401 85.141 61.2981L80.946 63.7441C80.8871 63.7728 80.8225 63.7878 80.757 63.7878C80.6915 63.7878 80.6269 63.7728 80.568 63.7441L76.373 61.2981C76.257 61.2401 76.198 61.0931 76.198 60.9761V56.0841C76.198 55.9381 76.258 55.8231 76.373 55.7641L80.568 53.3191C80.627 53.2896 80.6911 53.2742 80.757 53.2741Z" fill="white"/>
<path d="M47.982 42.8931C47.7574 42.7643 47.5029 42.6965 47.244 42.6965C46.9851 42.6965 46.7307 42.7643 46.506 42.8931L34.322 49.9701C34.0984 50.1 33.9135 50.2872 33.7863 50.5124C33.659 50.7375 33.5941 50.9925 33.598 51.251V65.432C33.598 65.957 33.888 66.452 34.322 66.714L46.506 73.7901C46.7307 73.9188 46.9851 73.9866 47.244 73.9866C47.5029 73.9866 47.7574 73.9188 47.982 73.7901L60.165 66.714C60.628 66.452 60.889 65.957 60.889 65.432V51.251C60.889 50.727 60.599 50.2311 60.165 49.9701L47.982 42.8931Z" fill="white"/>
<path d="M60.194 49.97L47.953 42.893C47.8329 42.8322 47.7069 42.7836 47.577 42.748L33.859 66.364C33.975 66.51 34.119 66.626 34.264 66.714L46.506 73.79C46.853 73.994 47.258 74.052 47.634 73.935L60.513 50.232C60.4283 50.1213 60.3191 50.0316 60.194 49.97Z" fill="white"/>
<path d="M60.194 66.713C60.542 66.509 60.802 66.16 60.918 65.781L47.518 42.718C47.172 42.66 46.795 42.689 46.477 42.893L34.322 49.94L47.432 73.993C47.605 73.964 47.808 73.906 47.982 73.818L60.194 66.713Z" fill="white"/>
</g>
<defs>
<clipPath id="clip0_29_93">
<rect width="128" height="128" fill="white"/>
</clipPath>
</defs>
</svg>
